<svg width="155" height="51" viewBox="0 0 155 51" fill="none" xmlns="http://www.w3.org/2000/svg">
<path d="M8.72191 50V7.58L0.811914 9.33V5.27L10.6819 0.999997H14.6719V50H8.72191ZM24.245 50V45.87C27.5583 43.2567 30.685 40.62 33.625 37.96C36.6116 35.2533 39.2483 32.5933 41.535 29.98C43.8683 27.3667 45.6883 24.8 46.995 22.28C48.3483 19.76 49.025 17.3333 49.025 15C49.025 13.2733 48.7216 11.6633 48.115 10.17C47.555 8.67667 46.6216 7.48667 45.315 6.6C44.0083 5.66666 42.235 5.2 39.995 5.2C37.8483 5.2 36.0516 5.69 34.605 6.67C33.1583 7.60333 32.0616 8.86333 31.315 10.45C30.615 12.0367 30.265 13.74 30.265 15.56H24.595C24.595 12.34 25.2716 9.58666 26.625 7.3C27.9783 4.96667 29.8216 3.19333 32.155 1.98C34.4883 0.766665 37.125 0.159999 40.065 0.159999C44.405 0.159999 47.9516 1.39667 50.705 3.87C53.505 6.29666 54.905 9.93666 54.905 14.79C54.905 17.6833 54.1816 20.5533 52.735 23.4C51.2883 26.2 49.445 28.93 47.205 31.59C44.965 34.2033 42.5616 36.6533 39.995 38.94C37.475 41.2267 35.1183 43.28 32.925 45.1H56.585V50H24.245ZM83.4836 32.57C82.1302 32.57 80.9402 32.3367 79.9136 31.87C78.8869 31.3567 77.9302 30.7967 77.0436 30.19C76.1569 29.5833 75.2702 29.0467 74.3836 28.58C73.4969 28.1133 72.5402 27.88 71.5136 27.88C70.2536 27.88 69.2036 28.3233 68.3636 29.21C67.5702 30.05 67.0802 31.1467 66.8936 32.5H62.4836C63.0436 29.14 64.1169 26.6667 65.7036 25.08C67.3369 23.4467 69.3902 22.63 71.8636 22.63C73.1702 22.63 74.3602 22.8633 75.4336 23.33C76.5069 23.7967 77.4869 24.3333 78.3736 24.94C79.2602 25.5467 80.1469 26.0833 81.0336 26.55C81.9202 27.0167 82.8536 27.25 83.8336 27.25C85.0936 27.25 86.1202 26.83 86.9136 25.99C87.7536 25.15 88.2669 24.03 88.4536 22.63H92.8636C92.3502 25.99 91.2769 28.4867 89.6436 30.12C88.0569 31.7533 86.0036 32.57 83.4836 32.57ZM105.45 50V7.58L97.5404 9.33V5.27L107.41 0.999997H111.4V50H105.45ZM137.913 50.84C134.693 50.84 131.8 50.2567 129.233 49.09C126.667 47.8767 124.637 46.22 123.143 44.12C121.697 41.9733 120.973 39.5 120.973 36.7C120.973 33.7133 121.837 31.03 123.563 28.65C125.337 26.27 127.67 24.6833 130.563 23.89C127.903 23.0033 125.85 21.58 124.403 19.62C122.957 17.66 122.233 15.5133 122.233 13.18C122.233 10.8 122.863 8.63 124.123 6.67C125.383 4.66333 127.18 3.07666 129.513 1.91C131.847 0.743332 134.647 0.159999 137.913 0.159999C141.18 0.159999 143.98 0.743332 146.313 1.91C148.647 3.07666 150.443 4.66333 151.703 6.67C152.963 8.63 153.593 10.8 153.593 13.18C153.593 15.4667 152.87 17.6133 151.423 19.62C149.977 21.58 147.923 23.0033 145.263 23.89C148.157 24.6833 150.467 26.27 152.193 28.65C153.967 31.03 154.853 33.7133 154.853 36.7C154.853 39.5 154.107 41.9733 152.613 44.12C151.167 46.22 149.16 47.8767 146.593 49.09C144.027 50.2567 141.133 50.84 137.913 50.84ZM137.913 21.79C140.9 21.79 143.257 21.0433 144.983 19.55C146.757 18.01 147.643 16.0033 147.643 13.53C147.643 10.7767 146.78 8.7 145.053 7.3C143.327 5.9 140.947 5.2 137.913 5.2C134.88 5.2 132.5 5.9 130.773 7.3C129.093 8.7 128.253 10.7767 128.253 13.53C128.253 16.0033 129.117 18.01 130.843 19.55C132.57 21.0433 134.927 21.79 137.913 21.79ZM137.913 45.66C141.6 45.66 144.353 44.82 146.173 43.14C148.04 41.4133 148.973 39.15 148.973 36.35C148.973 33.1767 147.97 30.7733 145.963 29.14C143.957 27.5067 141.273 26.69 137.913 26.69C134.553 26.69 131.87 27.5067 129.863 29.14C127.857 30.7733 126.853 33.1767 126.853 36.35C126.853 39.15 127.763 41.4133 129.583 43.14C131.45 44.82 134.227 45.66 137.913 45.66Z" fill="black"/>
</svg>
