<svg width="172" height="51" viewBox="0 0 172 51" fill="none" xmlns="http://www.w3.org/2000/svg">
<path d="M0.0988282 47V12H12.3488C15.0822 12 17.3488 12.4667 19.1488 13.4C20.9488 14.3 22.2822 15.55 23.1488 17.15C24.0488 18.7167 24.4988 20.5 24.4988 22.5C24.4988 24.4 24.0655 26.15 23.1988 27.75C22.3655 29.3167 21.0488 30.5667 19.2488 31.5C17.4488 32.4333 15.1488 32.9 12.3488 32.9H5.39883V47H0.0988282ZM5.39883 28.55H12.0988C14.5988 28.55 16.3822 28.0167 17.4488 26.95C18.5488 25.85 19.0988 24.3667 19.0988 22.5C19.0988 20.5667 18.5488 19.0667 17.4488 18C16.3822 16.9 14.5988 16.35 12.0988 16.35H5.39883V28.55ZM45.8875 47.6C42.4208 47.6 39.3875 46.8333 36.7875 45.3C34.1875 43.7667 32.1542 41.65 30.6875 38.95C29.2208 36.2167 28.4875 33.0667 28.4875 29.5C28.4875 25.9333 29.2208 22.8 30.6875 20.1C32.1542 17.3667 34.1875 15.2333 36.7875 13.7C39.3875 12.1667 42.4208 11.4 45.8875 11.4C49.3542 11.4 52.3875 12.1667 54.9875 13.7C57.5875 15.2333 59.6042 17.3667 61.0375 20.1C62.5042 22.8 63.2375 25.9333 63.2375 29.5C63.2375 33.0667 62.5042 36.2167 61.0375 38.95C59.6042 41.65 57.5875 43.7667 54.9875 45.3C52.3875 46.8333 49.3542 47.6 45.8875 47.6ZM45.8875 42.85C48.2875 42.85 50.3708 42.3167 52.1375 41.25C53.9375 40.1833 55.3375 38.65 56.3375 36.65C57.3375 34.65 57.8375 32.2667 57.8375 29.5C57.8375 26.7333 57.3375 24.35 56.3375 22.35C55.3375 20.35 53.9375 18.8167 52.1375 17.75C50.3708 16.6833 48.2875 16.15 45.8875 16.15C43.4875 16.15 41.3875 16.6833 39.5875 17.75C37.7875 18.8167 36.3875 20.35 35.3875 22.35C34.4208 24.35 33.9375 26.7333 33.9375 29.5C33.9375 32.2667 34.4208 34.65 35.3875 36.65C36.3875 38.65 37.7875 40.1833 39.5875 41.25C41.3875 42.3167 43.4875 42.85 45.8875 42.85ZM69.1418 47V12H75.3918L87.2418 35.3L99.0418 12H105.292V47H99.9918V21.15L89.2918 42H85.1918L74.4418 21.2V47H69.1418Z" fill="#FFCF51"/>
<path d="M121.451 50.5H171.451V0.5H121.451V50.5Z" fill="black"/>
</svg>
